HIERARCHY
ROOT Hips
{
	OFFSET 0.000000 0.000000 0.000000
	CHANNELS 6 Xposition Yposition Zposition Zrotation Yrotation Xrotation 
	JOINT LHipJoint
	{
		OFFSET 0.000000 0.000000 0.000000
		CHANNELS 3 Zrotation Yrotation Xrotation
		JOINT LeftUpLeg
		{
			OFFSET 1.363060 -1.794630 0.839290
			CHANNELS 3 Zrotation Yrotation Xrotation
			JOINT LeftLeg
			{
				OFFSET 2.448110 -6.726130 0.000000
				CHANNELS 3 Zrotation Yrotation Xrotation
				JOINT LeftFoot
				{
					OFFSET 2.562200 -7.039590 0.000000
					CHANNELS 3 Zrotation Yrotation Xrotation
					JOINT LeftToeBase
					{
						OFFSET 0.157640 -0.433110 2.322550
						CHANNELS 3 Zrotation Yrotation Xrotation
						End Site
						{
							OFFSET 0.000000 0.000000 0.000000
						}
					}
				}
			}
		}
	}
	JOINT RHipJoint
	{
		OFFSET 0.000000 0.000000 0.000000
		CHANNELS 3 Zrotation Yrotation Xrotation
		JOINT RightUpLeg
		{
			OFFSET -1.305520 -1.794630 0.839290
			CHANNELS 3 Zrotation Yrotation Xrotation
			JOINT RightLeg
			{
				OFFSET -2.542530 -6.985550 0.000000
				CHANNELS 3 Zrotation Yrotation Xrotation
				JOINT RightFoot
				{
					OFFSET -2.568260 -7.056230 0.000000
					CHANNELS 3 Zrotation Yrotation Xrotation
					JOINT RightToeBase
					{
						OFFSET -0.164730 -0.452590 2.363150
						CHANNELS 3 Zrotation Yrotation Xrotation
						End Site
						{
							OFFSET 0.000000 0.000000 0.000000
						}
					}
				}
			}
		}
	}
}
MOTION
Frames: 27
Frame Time: 0.008333
-10.574673 16.830895 -2.086568 10.639974 83.102374 20.599634 -9.796507 0.468626 3.101253 -12.198205 -0.821117 -37.596049 -1.832593 0.652026 27.788990 1.326954 6.767092 -5.568815 0.445000 0.000000 -14.585900 10.833797 -4.479234 -0.443460 -0.028586 -10.470266 -2.074468 0.787813 -2.806654 35.750187 0.750644 16.621913 13.335469 5.437800 0.000000 -87.035800
-10.426493 16.786535 -2.098926 13.275850 83.030245 23.003858 -9.724903 0.476915 2.907768 -12.849503 -0.615103 -37.709010 -1.790137 0.781764 29.777224 1.362305 6.867474 -6.268486 0.334500 0.000001 -14.462500 11.088022 -4.454441 -0.493790 -0.898242 -10.744203 -3.306568 0.533452 -3.011973 38.921066 0.607615 16.915615 14.845882 6.026400 0.000000 -86.402900
-10.283028 16.737709 -2.112366 15.653525 82.909400 25.134812 -9.643963 0.487690 2.699153 -13.492723 -0.395771 -37.771309 -1.753254 0.907049 31.760511 1.406279 6.970468 -7.174774 0.190100 -0.000001 -14.439400 11.337189 -4.394983 -0.556614 -1.723790 -10.947086 -4.579222 0.277517 -3.212691 42.207461 0.450655 16.917036 16.274645 6.503900 0.000000 -84.892700
-10.144115 16.684806 -2.127058 17.740280 82.740804 26.961506 -9.559675 0.501673 2.479373 -14.120113 -0.169187 -37.776429 -1.722816 1.027800 33.713265 1.460682 7.088604 -8.269864 0.012899 0.000000 -14.495201 11.574215 -4.302861 -0.632328 -2.495232 -11.075597 -5.882215 0.021639 -3.410985 45.581678 0.284085 16.544960 17.539428 6.790500 0.000000 -82.635000
-10.009397 16.628465 -2.143004 19.552562 82.530039 28.503058 -9.475494 0.519002 2.252918 -14.729903 0.053796 -37.719661 -1.698972 1.143457 35.609435 1.527382 7.237483 -9.522798 -0.194700 -0.000000 -14.603200 11.796489 -4.181586 -0.721076 -3.211264 -11.137348 -7.211576 -0.234308 -3.609790 49.015933 0.110467 15.737603 18.566525 6.818200 0.000001 -79.844200
-9.878416 16.569563 -2.160160 21.113536 82.284704 29.785412 -9.394127 0.539547 2.023711 -15.319826 0.264019 -37.598805 -1.681029 1.253719 37.427034 1.607414 7.429537 -10.894055 -0.430600 -0.000000 -14.733400 12.002865 -4.035129 -0.821879 -3.869497 -11.139037 -8.562370 -0.491768 -3.811339 52.477690 -0.069664 14.456813 19.292729 6.541600 -0.000000 -76.772700
-9.750663 16.509161 -2.178245 22.480102 82.013560 30.868795 -9.315135 0.563250 1.795665 -15.893546 0.449215 -37.412851 -1.667740 1.357923 39.145500 1.701428 7.676745 -12.337294 -0.692000 0.000000 -14.855200 12.195804 -3.867054 -0.933142 -4.474328 -11.091229 -9.931909 -0.752387 -4.017261 55.933122 -0.257504 12.701934 19.668096 5.951700 -0.000000 -73.627100
-9.625587 16.448412 -2.197115 23.675375 81.725962 31.779448 -9.239927 0.589785 1.571753 -16.448465 0.603927 -37.164671 -1.657303 1.456129 40.751399 1.808454 7.982855 -13.805509 -0.976400 0.000000 -14.941899 12.375581 -3.680765 -1.052493 -5.022586 -10.999902 -11.314633 -1.017351 -4.227459 59.344703 -0.454867 10.508720 19.656394 5.076899 -0.000000 -70.540300
-9.502659 16.388523 -2.216636 24.716458 81.431640 32.537716 -9.170273 0.618748 1.354500 -16.980097 0.726029 -36.859700 -1.647856 1.548635 42.236678 1.926149 8.345025 -15.253827 -1.280000 -0.000000 -14.976500 12.541909 -3.479697 -1.177190 -5.509041 -10.870675 -12.705448 -1.286698 -4.440654 62.674727 -0.662958 7.953165 19.235558 3.983300 -0.000000 -67.539800
-9.381388 16.330675 -2.236551 25.636370 81.140431 33.179812 -9.106302 0.649950 1.145974 -17.487405 0.813557 -36.502467 -1.637960 1.635421 43.594794 2.051291 8.755864 -16.641631 -1.597400 0.000000 -14.953300 12.695803 -3.267131 -1.304864 -5.933634 -10.712994 -14.099979 -1.558885 -4.655105 65.885068 -0.881123 5.149359 18.400940 2.767000 -0.000000 -64.565000
-9.261262 16.275997 -2.256569 26.474711 80.862307 33.748225 -9.047226 0.683584 0.947665 -17.970943 0.866409 -36.095002 -1.626758 1.716236 44.819962 2.179989 9.203726 -17.934969 -1.921700 -0.000001 -14.879000 12.838631 -3.046456 -1.433275 -6.298618 -10.537436 -15.493173 -1.830882 -4.868614 68.936903 -1.105820 2.238741 17.168626 1.540500 0.000000 -61.515800
-9.141877 16.225449 -2.276552 27.237482 80.605966 34.252519 -8.994855 0.719708 0.760600 -18.425183 0.891513 -35.643888 -1.614163 1.791433 45.912623 2.307223 9.668151 -19.112207 -2.244699 -0.000000 -14.771600 12.968587 -2.821553 -1.559798 -6.599145 -10.351720 -16.880789 -2.098500 -5.077571 71.793144 -1.330337 -0.627979 15.576307 0.413201 0.000000 -58.288701
-9.022857 16.179818 -2.296280 27.942528 80.379519 34.713198 -8.949746 0.758678 0.585232 -18.847066 0.896946 -35.152754 -1.601025 1.860970 46.871661 2.428181 10.126978 -20.161615 -2.557300 0.000001 -14.653401 13.084592 -2.596110 -1.682217 -6.834011 -10.165067 -18.258751 -2.356284 -5.278234 74.419816 -1.544828 -3.301987 13.680899 -0.523000 -0.000000 -54.808000
-8.903821 16.139862 -2.315550 28.611875 80.189414 35.153752 -8.911597 0.801393 0.422038 -19.235617 0.891120 -34.620567 -1.588943 1.924390 47.693647 2.538705 10.558108 -21.081207 -2.851100 0.000001 -14.543700 13.185904 -2.373710 -1.798340 -7.004482 -9.987007 -19.621597 -2.597665 -5.466757 76.786331 -1.737334 -5.652171 11.554739 -1.207200 0.000000 -51.038600
-8.784489 16.106015 -2.334229 29.244926 80.040616 35.576403 -8.881793 0.848246 0.270938 -19.585604 0.886181 -34.050911 -1.580086 1.981646 48.378846 2.635111 10.938077 -21.880525 -3.119200 -0.000000 -14.458500 13.269733 -2.157312 -1.906281 -7.106281 -9.824183 -20.966787 -2.815430 -5.638832 78.869166 -1.895431 -7.578846 9.275392 -1.617300 0.000000 -46.993000
-8.664546 16.078676 -2.352185 29.854085 79.935770 35.994493 -8.860035 0.900033 0.131985 -19.895367 0.892109 -33.441428 -1.576947 2.032063 48.922880 2.715248 11.249147 -22.574627 -3.356500 -0.000000 -14.403900 13.334767 -1.949291 -2.004337 -7.139498 -9.682948 -22.289772 -3.002035 -5.790974 80.650109 -2.008010 -9.016889 6.921324 -1.767500 0.000000 -42.730000
-8.543781 16.058200 -2.369226 30.454560 79.875655 36.421472 -8.845346 0.957638 0.005598 -20.164959 0.916454 -32.785652 -1.582032 2.074587 49.317350 2.778250 11.479271 -23.180757 -3.560700 0.000000 -14.377100 13.380248 -1.751278 -2.091066 -7.106156 -9.568847 -23.584038 -3.150168 -5.920377 82.115164 -2.067145 -9.939234 4.567570 -1.701700 -0.000000 -38.354300
-8.421922 16.044706 -2.385359 31.043324 79.858125 36.856369 -8.837748 1.021122 -0.108425 -20.391820 0.966359 -32.082244 -1.597570 2.108509 49.556828 2.824200 11.620853 -23.718298 -3.731200 -0.000000 -14.371900 13.404587 -1.563724 -2.165291 -7.004394 -9.482266 -24.846808 -3.253820 -6.024602 83.257600 -2.069475 -10.355956 2.283084 -1.483000 0.000000 -34.024400
-8.298714 16.038491 -2.400446 31.634134 79.879409 37.309852 -8.835296 1.090968 -0.209475 -20.578325 1.044022 -31.320814 -1.625253 2.132288 49.628226 2.854400 11.674895 -24.200186 -3.868800 0.000000 -14.376600 13.408325 -1.386807 -2.225459 -6.838434 -9.422543 -26.070576 -3.308696 -6.102389 84.072661 -2.016604 -10.308203 0.128786 -1.179800 -0.000001 -29.923600
-8.173974 16.039648 -2.414488 32.220834 79.933533 37.776252 -8.837415 1.166545 -0.297762 -20.723651 1.150967 -30.497825 -1.666094 2.144866 49.522594 2.870438 11.645839 -24.635788 -3.974800 -0.000000 -14.382700 13.391033 -1.219595 -2.270373 -6.608241 -9.383644 -27.251738 -3.313161 -6.152645 84.561905 -1.915245 -9.864360 -1.843537 -0.855400 0.000000 -26.279700
-8.047487 16.048337 -2.427509 32.799117 80.013956 38.249429 -8.842940 1.247167 -0.373126 -20.828653 1.285868 -29.605751 -1.720247 2.144771 49.228014 2.874073 11.542698 -25.025458 -4.050000 0.000001 -14.384100 13.353255 -1.061158 -2.298691 -6.316069 -9.357989 -28.384829 -3.268053 -6.175070 84.729799 -1.776181 -9.112014 -3.599566 -0.556999 0.000000 -23.285300
-7.919055 16.064696 -2.439537 33.357458 80.113529 38.716545 -8.851204 1.331635 -0.435825 -20.893619 1.446041 -28.639147 -1.787029 2.130737 48.734442 2.866895 11.377048 -25.362361 -4.094800 0.000000 -14.379800 13.295442 -0.910322 -2.309770 -5.963933 -9.336148 -29.464095 -3.176466 -6.169866 84.585166 -1.612859 -8.149989 -5.127655 -0.312700 0.000000 -21.057900
-7.788516 16.088782 -2.450660 33.878238 80.226145 39.158743 -8.861958 1.418410 -0.486143 -20.918333 1.627656 -27.594273 -1.864834 2.101637 48.034910 2.850114 11.161705 -25.633464 -4.108900 -0.000000 -14.375700 13.217993 -0.766130 -2.303547 -5.553010 -9.308875 -30.484327 -3.042864 -6.137800 84.140072 -1.439864 -7.081091 -6.441180 -0.131600 0.000000 -19.602600
-7.655743 16.120702 -2.461038 34.337564 80.346110 39.550077 -8.875525 1.505748 -0.525253 -20.901935 1.826797 -26.466302 -1.951432 2.056619 47.123197 2.824300 10.909507 -25.819533 -4.091400 -0.000000 -14.382500 13.120980 -0.627722 -2.281465 -5.085422 -9.267658 -31.436658 -2.872034 -6.079957 83.405852 -1.271239 -6.003617 -7.573253 -0.009500 0.000000 -18.810500
-7.520667 16.160224 -2.470815 34.708519 80.470805 39.862556 -8.892780 1.591945 -0.553112 -20.842501 2.038881 -25.257237 -2.043629 1.995251 46.002288 2.789614 10.632425 -25.900496 -4.041400 -0.000000 -14.416000 13.004451 -0.495175 -2.244445 -4.561785 -9.206472 -32.315800 -2.668948 -5.997843 82.397459 -1.119263 -5.004645 -8.571307 0.066200 0.000000 -18.467700
-7.383259 16.207234 -2.480206 34.959218 80.598131 40.063220 -8.915330 1.675280 -0.571182 -20.737396 2.260051 -23.968276 -2.138099 1.917705 44.676122 2.745755 10.341350 -25.854975 -3.958000 0.000000 -14.494000 12.867774 -0.368425 -2.195272 -3.982484 -9.120524 -33.111103 -2.438202 -5.892540 81.123790 -0.993940 -4.155574 -9.474837 0.110200 -0.000000 -18.386600
-7.243503 16.261322 -2.489459 35.055486 80.728828 40.117497 -8.945459 1.754480 -0.580386 -20.583065 2.487460 -22.605286 -2.231066 1.824833 43.156919 2.692128 10.045101 -25.664344 -3.841100 -0.000000 -14.635400 12.710178 -0.247995 -2.136514 -3.348067 -9.008528 -33.813117 -2.184331 -5.765010 79.592366 -0.902580 -3.508188 -10.314921 0.137500 0.000000 -18.375800
